{"title":"The_Lost_Valentine_720p_20110130_TTL","uid":6141693,"size":2819385298,"categoryP":"video","categoryS":"hd___tv_shows","magnet":"?xt=urn:btih:ac754ef82c80f977c49ffd21bfd549c852a57629&amp;dn=The_Lost_Valentine_720p_20110130_TTL&amp;tr=udp%3A%2F%2Ftracker.openbittorrent.com%3A80&amp;tr=udp%3A%2F%2Fopen.demonii.com%3A1337&amp;tr=udp%3A%2F%2Ftracker.coppersurfer.tk%3A6969&amp;tr=udp%3A%2F%2Fexodus.desync.com%3A6969","seeders":1,"leechers":0,"uploader":"thetorrentlord","files":2,"time":1296524400,"description":"This is a Hallmark Hall of Fame Presentation starring Betty White and Jennifer Love Hewitt. Enjoy and please share.\t\t\t\t\t\t\t\t\t\t\t\t\t\t\t\t\t\t\t\t\t\t\t\t\t\t\t\t\t\t\t\t\t\t\t\t\t\t****************************************************************************************************************************************************************************************************************************************\t\t\t\t\t\t\t\t\t\t\t\t\t\t\t\t\t\t\t\t\t\t\t\t\t\t\t\t\t\t\t\t\t\t\t\t\t\t\t\t\t\t\t\t\t\t\t\t\t\t\t\t\t\t\t\t\t\t\tThe_Lost_Valentine_720p_20110130_TTL.avi\nFormat                           : AVI\nFormat/Info                      : Audio Video Interleave\nFormat profile                   : OpenDML\nFile size                        : 2.63 GiB\nDuration                         : 1h 36mn\nOverall bit rate                 : 3 914 Kbps\nMovie name                       : The_Lost_Valentine_720p_20110130_TTL_.mpg\nDirector                         : created.with.SUPER(C).v2009.bld.35\nWriting application              : SUPER(C)   \n\nVideo\nID                               : 0\nFormat                           : MPEG-4 Visual\nFormat profile                   : Simple@L3\nFormat settings, BVOP            : No\nFormat settings, QPel            : No\nFormat settings, GMC             : No warppoints\nFormat settings, Matrix          : Default (H.263)\nCodec ID                         : XVID\nCodec ID/Hint                    : XviD\nDuration                         : 1h 36mn\nBit rate                         : 3 789 Kbps\nWidth                            : 1 280 pixels\nHeight                           : 720 pixels\nDisplay aspect ratio             : 16:9\nFrame rate                       : 29.970 fps\nColor space                      : YUV\nChroma subsampling               : 4:2:0\nBit depth                        : 8 bits\nScan type                        : Progressive\nBits/(Pixel*Frame)               : 0.137\nStream size                      : 2.54 GiB (97%)\nWriting library                  : XviD 1.1.2 (UTC 2006-11-01)\n\nAudio\nID                               : 1\nFormat                           : MPEG Audio\nFormat version                   : Version 1\nFormat profile                   : Layer 3\nMode                             : Joint stereo\nMode extension                   : MS Stereo\nCodec ID                         : 55\nCodec ID/Hint                    : MP3\nDuration                         : 1h 36mn\nBit rate mode                    : Constant\nBit rate                         : 112 Kbps\nChannel(s)                       : 2 channels\nSampling rate                    : 48.0 KHz\nStream size                      : 76.9 MiB (3%)\nAlignment                        : Aligned on interleaves\nInterleave, duration             : 24 ms (0.72 video frame)\nInterleave, preload duration     : 24 ms\n\n","torrent":{"xt":"urn:btih:ac754ef82c80f977c49ffd21bfd549c852a57629","amp;dn":"The_Lost_Valentine_720p_20110130_TTL","amp;tr":["udp%3A%2F%2Ftracker.openbittorrent.com%3A80","udp%3A%2F%2Fopen.demonii.com%3A1337","udp%3A%2F%2Ftracker.coppersurfer.tk%3A6969","udp%3A%2F%2Fexodus.desync.com%3A6969"],"infoHash":"ac754ef82c80f977c49ffd21bfd549c852a57629","infoHashBuffer":{"type":"Buffer","data":[172,117,78,248,44,128,249,119,196,159,253,33,191,213,73,200,82,165,118,41]},"announce":[],"urlList":[]}}